<svg width="46" height="46" viewBox="0 0 46 46" fill="none" xmlns="http://www.w3.org/2000/svg">
<path d="M32.5833 5.75H13.4167C9.18275 5.75 5.75 9.18275 5.75 13.4167V32.5833C5.75 36.8172 9.18275 40.25 13.4167 40.25H24.1903V26.9081H19.6995V21.6852H24.1903V17.8422C24.1903 13.3879 26.9138 10.9595 30.889 10.9595C32.2287 10.9557 33.5666 11.0247 34.8987 11.1607V15.8183H32.1617C29.9958 15.8183 29.5742 16.8417 29.5742 18.3521V21.6775H34.7492L34.0764 26.9004H29.5435V40.25H32.5833C36.8172 40.25 40.25 36.8172 40.25 32.5833V13.4167C40.25 9.18275 36.8172 5.75 32.5833 5.75Z" fill="black"/>
</svg>