<svg width="47" height="46" viewBox="0 0 47 46" fill="none" xmlns="http://www.w3.org/2000/svg">
<path d="M15.6667 5.75C10.2597 5.75 5.875 10.0414 5.875 15.3333V30.6667C5.875 35.9586 10.2597 40.25 15.6667 40.25H31.3333C36.7403 40.25 41.125 35.9586 41.125 30.6667V15.3333C41.125 10.0414 36.7403 5.75 31.3333 5.75H15.6667ZM35.25 9.58333C36.331 9.58333 37.2083 10.442 37.2083 11.5C37.2083 12.558 36.331 13.4167 35.25 13.4167C34.169 13.4167 33.2917 12.558 33.2917 11.5C33.2917 10.442 34.169 9.58333 35.25 9.58333ZM23.5 13.4167C28.907 13.4167 33.2917 17.7081 33.2917 23C33.2917 28.2919 28.907 32.5833 23.5 32.5833C18.093 32.5833 13.7083 28.2919 13.7083 23C13.7083 17.7081 18.093 13.4167 23.5 13.4167ZM23.5 17.25C21.9419 17.25 20.4475 17.8558 19.3457 18.9341C18.244 20.0125 17.625 21.475 17.625 23C17.625 24.525 18.244 25.9875 19.3457 27.0659C20.4475 28.1442 21.9419 28.75 23.5 28.75C25.0581 28.75 26.5525 28.1442 27.6543 27.0659C28.756 25.9875 29.375 24.525 29.375 23C29.375 21.475 28.756 20.0125 27.6543 18.9341C26.5525 17.8558 25.0581 17.25 23.5 17.25Z" fill="black"/>
</svg>