<svg width="46" height="46" viewBox="0 0 46 46" fill="none" xmlns="http://www.w3.org/2000/svg">
<path d="M41.3655 11.8566C40.9247 10.2082 39.6252 8.90875 37.9768 8.46792C34.9868 7.66675 23 7.66675 23 7.66675C23 7.66675 11.0132 7.66675 8.02318 8.46792C6.37484 8.90875 5.07534 10.2082 4.63451 11.8566C3.83334 14.8466 3.83334 23.0001 3.83334 23.0001C3.83334 23.0001 3.83334 31.1536 4.63451 34.1436C5.07534 35.7919 6.37484 37.0914 8.02318 37.5322C11.0132 38.3334 23 38.3334 23 38.3334C23 38.3334 34.9868 38.3334 37.9768 37.5322C39.6271 37.0914 40.9247 35.7919 41.3655 34.1436C42.1667 31.1536 42.1667 23.0001 42.1667 23.0001C42.1667 23.0001 42.1667 14.8466 41.3655 11.8566ZM19.1667 27.9796V18.0206C19.1667 17.2827 19.9659 16.8227 20.6042 17.1907L29.2292 22.1702C29.8674 22.5382 29.8674 23.462 29.2292 23.83L20.6042 28.8095C19.9659 29.1794 19.1667 28.7175 19.1667 27.9796Z" fill="black"/>
</svg>