<?xml version="1.0" encoding="UTF-8"?>
<!DOCTYPE svg PUBLIC "-//W3C//DTD SVG 1.1//EN" "http://www.w3.org/Graphics/SVG/1.1/DTD/svg11.dtd">
<!-- Creator: CorelDRAW 2020 (64-Bit) -->
<svg xmlns="http://www.w3.org/2000/svg" xml:space="preserve" width="159px" height="48px" version="1.1" style="shape-rendering:geometricPrecision; text-rendering:geometricPrecision; image-rendering:optimizeQuality; fill-rule:evenodd; clip-rule:evenodd"
viewBox="0 0 147.782 44.167"
 xmlns:xlink="http://www.w3.org/1999/xlink"
 xmlns:xodm="http://www.corel.com/coreldraw/odm/2003">
 <defs>
  <style type="text/css">
   <![CDATA[
    .fil0 {fill:#FEFEFE}
   ]]>
  </style>
 </defs>
 <g id="Layer_x0020_1">
  <metadata id="CorelCorpID_0Corel-Layer"/>
  <g id="_2092229901216">
   <path class="fil0" d="M26.375 22.181c-0.504,4.311 3.586,8.262 7.886,8.262 4.451,0 8.466,-3.607 8.06,-7.974 -0.406,-4.367 -4.07,-7.638 -8.06,-7.568 -5.322,0.092 -7.48,3.803 -7.886,7.28zm0.147 10.138l0 9.412c0,1.34 -1.096,2.436 -2.436,2.436l0 0c-1.34,0 -2.436,-1.096 -2.436,-2.436l0 -18.7c0,-0.06 0.002,-0.119 0.006,-0.178 -0.004,-0.127 -0.006,-0.256 -0.006,-0.384 0,-6.89 5.646,-12.475 12.611,-12.475 6.964,0 12.61,5.585 12.61,12.475 0,6.89 -5.646,12.475 -12.61,12.475 -2.917,0 -5.602,-0.98 -7.739,-2.625z"/>
   <path class="fil0" d="M62.943 9.963c6.742,0 12.208,5.465 12.208,12.208 0,3.204 -0.216,6.529 -0.216,9.819 0,1.318 -1.079,2.398 -2.398,2.398l0 0c-1.305,0 -2.375,-1.057 -2.397,-2.357 -2.018,1.476 -4.506,2.347 -7.197,2.347 -6.743,0 -12.208,-5.465 -12.208,-12.207 0,-6.743 5.465,-12.208 12.208,-12.208zm0 4.287c4.374,0 7.92,3.546 7.92,7.921 0,4.374 -3.546,7.92 -7.92,7.92 -4.375,0 -7.921,-3.546 -7.921,-7.92 0,-4.375 3.546,-7.921 7.921,-7.921z"/>
   <g>
    <rect class="fil0" x="0.662" y="9.922" width="4.961" height="25.124" rx="2.481" ry="2.446"/>
    <rect class="fil0" width="6.472" height="6.276" rx="3.236" ry="0.611"/>
   </g>
   <path class="fil0" d="M124.68 28.13c1.194,0 2.17,0.976 2.17,2.169l0 0.217c0,2.853 -6.246,4.293 -8.443,4.293 -6.84,0 -12.383,-5.544 -12.383,-12.383 0,-6.838 5.543,-12.382 12.383,-12.382 11.309,0 15.374,14.686 10.272,14.686l-10.615 0c-1.16,0 -2.109,-0.948 -2.109,-2.108 0,-1.16 0.949,-2.108 2.109,-2.108l8.031 0c-0.856,-3.451 -3.974,-6.008 -7.688,-6.008 -4.375,0 -7.921,3.546 -7.921,7.92 0,4.375 3.546,7.921 7.921,7.921 3.588,0 4.643,-2.217 6.273,-2.217z"/>
   <path class="fil0" d="M90.485 24.512l6.923 9.687c0.843,1.181 2.5,1.456 3.681,0.612 1.181,-0.843 1.456,-2.5 0.612,-3.681l-7.295 -10.207 6.937 -6.35c1.071,-0.98 1.145,-2.658 0.165,-3.729 -0.981,-1.07 -2.658,-1.144 -3.728,-0.164l-6.465 5.917 -3.892 3.563 0 -17.237c0,-1.451 -1.187,-2.639 -2.639,-2.639 -1.451,0 -2.638,1.188 -2.638,2.639l0 29.721c0,1.451 1.187,2.638 2.638,2.638 1.452,0 2.639,-1.187 2.639,-2.638l0 -5.329 3.062 -2.803z"/>
   <path class="fil0" d="M135.441 2.143c0,8.165 0,16.329 0,24.493 0.474,4.679 2.524,7.75 6.987,8.37l2.994 0c2.799,0.071 3.476,-4.077 0,-4.838l-2.764 0c-1.717,-0.408 -2.531,-1.664 -2.61,-3.608l0 -12.669 5.067 0c2.152,-0.247 2.647,-3.708 0,-4.377l-4.914 0 0 -7.39c-0.405,-2.675 -4.495,-2.341 -4.76,0.019z"/>
  </g>
 </g>
</svg>
